<svg xmlns="http://www.w3.org/2000/svg" baseProfile="basic" viewBox="0 0 48 48"><linearGradient id="Z2lDIETxU74pXAQw0_dyza" x1="13.398" x2="45.047" y1="3.192" y2="65.307" gradientUnits="userSpaceOnUse"><stop offset="0" stop-color="#dfe9f2"/><stop offset=".998" stop-color="#9ea7b0"/></linearGradient><path fill="url(#Z2lDIETxU74pXAQw0_dyza)" d="M2,9h44v30H2V9z"/><linearGradient id="Z2lDIETxU74pXAQw0_dyzb" x1="16.402" x2="35.557" y1="9.088" y2="46.683" gradientUnits="userSpaceOnUse"><stop offset=".008" stop-color="#f44f5a"/><stop offset=".447" stop-color="#ee3d4a"/><stop offset="1" stop-color="#e52030"/></linearGradient><path fill="url(#Z2lDIETxU74pXAQw0_dyzb)" d="M46,27H27v12h-6V27H2v-6h19V9h6v12h19V27z M14.688,16.329	c-0.75-0.155-1.529-0.247-2.339-0.281c0.041,0.758,0.128,1.54,0.269,2.35c-0.72-0.116-1.436-0.117-2.148,0	c0.176-0.774,0.285-1.555,0.328-2.342c-0.772,0.039-1.57,0.128-2.397,0.272c0.116-0.72,0.117-1.436,0-2.148	c0.792,0.179,1.592,0.288,2.398,0.329c-0.043-0.793-0.152-1.593-0.328-2.399c0.659,0.115,1.373,0.118,2.148,0	c-0.158,0.766-0.25,1.565-0.282,2.394c0.778-0.045,1.562-0.153,2.352-0.325C14.574,14.837,14.571,15.551,14.688,16.329z M14.688,33.993c-0.75-0.155-1.529-0.247-2.339-0.281c0.041,0.758,0.128,1.54,0.269,2.35c-0.72-0.116-1.436-0.117-2.148,0	c0.176-0.774,0.285-1.555,0.328-2.342c-0.772,0.039-1.57,0.128-2.397,0.272c0.116-0.72,0.117-1.436,0-2.148	c0.792,0.179,1.592,0.288,2.398,0.329c-0.043-0.793-0.152-1.593-0.328-2.399c0.659,0.115,1.373,0.118,2.148,0	c-0.158,0.766-0.25,1.565-0.282,2.394c0.778-0.045,1.562-0.153,2.352-0.325C14.574,32.502,14.571,33.216,14.688,33.993z M39.534,16.329c-0.75-0.155-1.529-0.247-2.339-0.281c0.041,0.758,0.128,1.54,0.269,2.35c-0.72-0.116-1.436-0.117-2.148,0	c0.176-0.774,0.285-1.555,0.328-2.342c-0.772,0.039-1.57,0.128-2.397,0.272c0.116-0.72,0.117-1.436,0-2.148	c0.792,0.179,1.592,0.288,2.398,0.329c-0.043-0.793-0.152-1.593-0.328-2.399c0.659,0.115,1.373,0.118,2.148,0	c-0.158,0.766-0.25,1.565-0.282,2.394c0.778-0.045,1.562-0.153,2.352-0.325C39.42,14.837,39.416,15.551,39.534,16.329z M39.534,33.993c-0.75-0.155-1.529-0.247-2.339-0.281c0.041,0.758,0.128,1.54,0.269,2.35c-0.72-0.116-1.436-0.117-2.148,0	c0.176-0.774,0.285-1.555,0.328-2.342c-0.772,0.039-1.57,0.128-2.397,0.272c0.116-0.72,0.117-1.436,0-2.148	c0.792,0.179,1.592,0.288,2.398,0.329c-0.043-0.793-0.152-1.593-0.328-2.399c0.659,0.115,1.373,0.118,2.148,0	c-0.158,0.766-0.25,1.565-0.282,2.394c0.778-0.045,1.562-0.153,2.352-0.325C39.42,32.502,39.416,33.216,39.534,33.993z"/></svg>