<svg xmlns="http://www.w3.org/2000/svg" viewBox="0 0 48 48"><path fill="#00bcd4" d="M2 9H46V39H2z"/><path fill="#ffee58" d="M26.51 17.294A4.098 4.085 0 1 0 26.51 25.464000000000002 4.098 4.085 0 1 0 26.51 17.294zM26.51 16.737c.244-.003.335-.155.335-.337 0-.243-.335-1.4-.335-1.4s-.335 1.157-.335 1.4C26.175 16.582 26.266 16.737 26.51 16.737zM31.167 21.379c.003.243.155.334.338.334.244 0 1.404-.334 1.404-.334s-1.161-.334-1.404-.334C31.322 21.045 31.167 21.136 31.167 21.379zM26.51 26.022c-.244.003-.335.155-.335.337 0 .243.335 1.4.335 1.4s.335-1.157.335-1.4C26.845 26.177 26.753 26.022 26.51 26.022zM21.852 21.379c-.003-.243-.155-.334-.338-.334-.244 0-1.404.334-1.404.334s1.161.334 1.404.334C21.697 21.713 21.852 21.622 21.852 21.379zM28.292 17.09c.226.09.369-.015.439-.184.093-.224.228-1.421.228-1.421s-.754.941-.847 1.165C28.042 16.819 28.067 16.997 28.292 17.09zM30.813 23.156c-.09.226.015.368.184.438.225.093 1.426.227 1.426.227s-.944-.751-1.169-.844C31.084 22.907 30.906 22.931 30.813 23.156zM24.728 25.668c-.226-.09-.369.015-.439.184-.093.224-.228 1.421-.228 1.421s.754-.941.847-1.165C24.978 25.939 24.953 25.761 24.728 25.668zM22.207 19.603c.09-.226-.015-.368-.184-.438-.225-.093-1.426-.227-1.426-.227s.944.751 1.169.844C21.935 19.852 22.114 19.827 22.207 19.603zM29.803 18.097c.174.17.347.127.476-.002.172-.172.756-1.226.756-1.226s-1.058.582-1.23.754C29.676 17.751 29.631 17.925 29.803 18.097zM29.803 24.662c-.17.174-.127.346.002.474.172.172 1.23.754 1.23.754s-.584-1.054-.756-1.226C30.15 24.535 29.975 24.49 29.803 24.662zM23.217 24.662c-.174-.17-.347-.127-.476.002-.172.172-.756 1.226-.756 1.226s1.058-.582 1.23-.754C23.344 25.008 23.389 24.834 23.217 24.662zM23.217 18.097c.17-.174.127-.346-.002-.474-.172-.172-1.23-.754-1.23-.754s.584 1.054.756 1.226C22.87 18.223 23.044 18.268 23.217 18.097zM30.813 19.603c.096.223.272.249.441.18.225-.093 1.169-.844 1.169-.844s-1.2.134-1.426.227C30.828 19.235 30.719 19.378 30.813 19.603zM28.292 25.668c-.224.096-.25.271-.18.439.093.224.847 1.165.847 1.165s-.135-1.197-.228-1.421C28.661 25.684 28.517 25.575 28.292 25.668zM22.207 23.156c-.096-.223-.272-.249-.441-.18-.225.093-1.169.844-1.169.844s1.2-.134 1.426-.227C22.192 23.524 22.3 23.38 22.207 23.156zM24.728 17.09c.224-.096.25-.271.18-.439-.093-.224-.847-1.165-.847-1.165s.135 1.197.228 1.421C24.359 17.075 24.502 17.183 24.728 17.09zM27.418 16.826c.24.044.359-.087.395-.265.048-.238-.055-1.438-.055-1.438s-.555 1.069-.603 1.308C27.12 16.609 27.179 16.779 27.418 16.826zM31.078 22.285c-.045.239.087.358.266.393.239.047 1.443-.055 1.443-.055s-1.073-.553-1.312-.601C31.295 21.988 31.125 22.047 31.078 22.285zM25.601 25.933c-.24-.044-.359.087-.395.265-.048.238.055 1.438.055 1.438s.555-1.069.603-1.308C25.9 26.15 25.84 25.98 25.601 25.933zM21.942 20.474c.045-.239-.087-.358-.266-.393-.239-.047-1.443.055-1.443.055s1.073.553 1.312.601C21.724 20.771 21.894 20.712 21.942 20.474zM29.097 17.519c.204.132.365.057.466-.095.135-.202.502-1.349.502-1.349s-.923.776-1.059.978C28.905 17.205 28.895 17.384 29.097 17.519z"/><path fill="#ffee58" d="M30.382 23.958c-.133.204-.057.364.095.465.203.135 1.354.5 1.354.5s-.779-.92-.981-1.055C30.698 23.767 30.518 23.757 30.382 23.958zM23.922 25.239c-.204-.132-.365-.057-.466.095-.135.202-.502 1.349-.502 1.349s.923-.776 1.059-.978C24.115 25.554 24.125 25.374 23.922 25.239zM22.637 18.8c.133-.204.057-.364-.095-.465-.203-.135-1.354-.5-1.354-.5s.779.92.981 1.055C22.322 18.992 22.502 19.002 22.637 18.8zM30.382 18.8c.138.2.315.192.467.09.203-.135.981-1.055.981-1.055s-1.151.365-1.354.5C30.325 18.436 30.247 18.598 30.382 18.8zM29.097 25.239c-.201.137-.192.314-.091.466.135.202 1.059.978 1.059.978s-.366-1.147-.502-1.349C29.462 25.183 29.3 25.104 29.097 25.239zM22.637 23.958c-.138-.2-.315-.192-.467-.09-.203.135-.981 1.055-.981 1.055s1.151-.365 1.354-.5C22.694 24.322 22.773 24.16 22.637 23.958zM23.922 17.519c.201-.137.192-.314.091-.466-.135-.202-1.059-.978-1.059-.978s.366 1.147.502 1.349C23.557 17.576 23.72 17.654 23.922 17.519zM31.078 20.474c.051.238.218.297.397.262.239-.047 1.312-.601 1.312-.601s-1.204-.102-1.443-.055C31.165 20.116 31.03 20.235 31.078 20.474zM27.418 25.933c-.238.05-.298.217-.263.396.048.238.603 1.308.603 1.308s.102-1.2.055-1.438C27.777 26.019 27.657 25.885 27.418 25.933zM21.942 22.285c-.051-.238-.218-.297-.397-.262-.239.047-1.312.601-1.312.601s1.204.102 1.443.055C21.855 22.643 21.99 22.523 21.942 22.285zM25.601 16.826c.238-.05.298-.217.263-.396-.048-.238-.603-1.308-.603-1.308s-.102 1.2-.055 1.438C25.242 16.739 25.362 16.873 25.601 16.826zM25.779 30.229c-.11.006-.216.02-.321.054-.143.019-.28.069-.422.092l-.057.009-.095.009c.006.026.01.053.01.079 0 .027-.003.054-.01.076-.006.021-.025.048-.041.064-.02.022-.042.041-.067.054-.024.012-.052.017-.079.019-.027.001-.056 0-.082-.01-.027-.009-.053-.026-.076-.047-.028.007-.058.012-.085.015-.028.003-.055.003-.08 0-.028-.008-.058-.017-.085-.028s-.054-.025-.079-.041c-.104.061-.219.118-.282.225-.036.049-.043.104-.051.162-.005.071.013.146.044.212.011.019.02-.07.055-.082.058-.048.13-.082.203-.101.062-.031.054.002.028.051-.006.025-.041.121.006.073.206-.091.435-.109.657-.127.323-.033.647-.04.971-.045.305.004.609.008.914.019.145.004.291.036.435.012.035-.009.088-.011.109-.031-.065-.037-.141-.038-.213-.048h-.581c-.161-.016-.33-.018-.482-.079-.041-.016-.078-.055-.117-.013-.058.02-.12.034-.181.038-.107.008-.213-.014-.312-.054.071-.098.156-.184.235-.275-.063-.01-.124-.023-.187-.038C25.568 30.396 25.671 30.31 25.779 30.229L25.779 30.229z"/><path fill="#ffee58" d="M30.522,31.278c-0.221,0.132-0.389-0.102-0.574-0.172c-0.132,0.071-0.144,0.31-0.267,0.423c-0.147,0.167-0.328-0.047-0.314-0.211c-0.176,0.148-0.265,0.483-0.55,0.439c-0.135-0.11-0.235-0.34-0.338-0.078c-0.084,0.128-0.308,0.311-0.424,0.117c-0.036-0.171-0.122-0.372-0.215-0.1c-0.064,0.192-0.27,0.333-0.468,0.249c-0.109-0.089,0.087-0.417-0.051-0.393c-0.207,0.137-0.328,0.475-0.617,0.448c-0.112-0.126,0.068-0.338-0.055-0.478c-0.145,0.186-0.307,0.458-0.558,0.478c-0.121-0.098,0.005-0.38-0.073-0.421c-0.258,0.154-0.53,0.429-0.854,0.343c0.126-0.482,0.655-0.651,1.099-0.689c0.764-0.094,1.568,0.079,2.304-0.196c0.119-0.072,0.407-0.174,0.304-0.341c-0.091-0.132,0.236-0.08,0.268-0.235c-0.019-0.195,0.15-0.168,0.316-0.185c0.742-0.032,1.476,0.124,2.216,0.15c0.056,0.36-0.344,0.612-0.666,0.501c-0.154,0.025-0.385-0.353-0.339-0.078C30.633,30.991,30.654,31.182,30.522,31.278 M24.205,30.542c0.172,0.157,0.292-0.03,0.453-0.098c0.539-0.185,1.009-0.508,1.473-0.83c0.281-0.232,0.524-0.532,0.902-0.607c0.736-0.222,1.518-0.195,2.257-0.399c0.562-0.768,1.518-1.041,2.318-1.483c0.18-0.056,0.249-0.203,0.306-0.366c0.305-0.481,0.722-0.907,1.214-1.197c0.233-0.127,0.511-0.2,0.774-0.142c-0.019,0.313-0.199,0.59-0.416,0.807c0.178-0.004,0.331-0.116,0.511-0.11c0.062,0.321-0.286,0.489-0.471,0.689c0.103,0.024,0.498,0.054,0.283,0.157c-0.274,0.19-0.588,0.32-0.841,0.54c0.234,0.042,0.26,0.091,0.023,0.176c-0.129,0.087-0.376,0.117-0.4,0.287c0.176,0.108-0.081,0.215-0.181,0.251c-0.19,0.044-0.39,0.126-0.137,0.27c-0.096,0.144-0.3,0.175-0.468,0.16c0.051,0.163,0.124,0.345-0.088,0.417c-0.476,0.359-1.034,0.619-1.633,0.679c0.747,0.057,1.517-0.081,2.156-0.486c0.084-0.099,0.526-0.206,0.279-0.29c-0.116-0.048-0.366-0.102-0.383-0.19c0.346-0.213,0.782-0.137,1.154-0.263c0.01-0.12-0.283-0.087-0.392-0.114c-0.26-0.021-0.245-0.087,0.006-0.112c0.317-0.084,0.677-0.1,0.944-0.307c-0.217-0.1-0.491-0.012-0.723-0.094c0.393-0.172,0.857-0.189,1.21-0.446c0.161-0.178-0.206-0.123-0.313-0.118c-0.218,0.038-0.318-0.066-0.071-0.156c0.423-0.311,0.957-0.512,1.254-0.962c0.07-0.101,0.165-0.404-0.059-0.295c-0.295,0.098-0.554,0.428-0.89,0.326c0.662-0.511,1.292-1.094,1.744-1.801c0.023-0.204-0.298-0.226-0.382-0.066c-0.425,0.409-0.81,0.891-1.355,1.147c0.522-0.502,0.953-1.096,1.329-1.712c0.081-0.183,0.297-0.403,0.18-0.607c-0.19-0.156-0.427-0.013-0.525,0.174c-0.331,0.43-0.582,0.932-1.007,1.283c0.372-0.708,0.758-1.462,0.767-2.279c-0.001-0.168-0.035-0.416-0.264-0.384c-0.182,0.032-0.138,0.303-0.213,0.44c-0.165,0.558-0.242,1.162-0.58,1.651c0.076-0.453,0.209-0.926,0.107-1.384c-0.048-0.205-0.379-0.117-0.337,0.086c-0.396,2-1.742,3.749-3.503,4.76c-0.806,0.455-1.706,0.748-2.622,0.881c-0.246,0.054-0.513,0.022-0.748,0.106c-0.571,0.436-0.916,1.166-1.639,1.395c-0.324,0.16-0.746,0.193-0.978,0.493C24.208,30.455,24.204,30.499,24.205,30.542"/><path fill="#ffee58" d="M26.368 28.513c-.107.193-.169.415-.306.587-.412-.374-1.01-.362-1.534-.387-.432-.023-.901-.063-1.236-.37-.351-.287-.638-.66-1.031-.892-.358-.097-.72-.219-1.008-.464-.616-.5-.969-1.243-1.57-1.759-.115-.113-.25-.2-.379-.295-.122.03-.067.292-.216.158-.081-.058-.285-.063-.303.017.184.242.368.518.394.827-.125.013-.349-.026-.411.02.167.249.38.47.623.646-.116.019-.346.008-.39.055.241.196.499.396.815.446.065.085-.094.249.039.321.078.032.333.084.157.172-.121.081-.076.271.079.266.098.05.317.062.335.148-.087.088-.356.192-.127.275.214.119.459.195.704.204-.123.103-.274.162-.401.258.565.33 1.191.547 1.81.757.246.082.496.159.751.207-.742-.043-1.46-.262-2.136-.562-.35-.153-.703-.301-1.062-.433.157-.082.34-.102.503-.172-.339-.068-.709-.09-1.007-.276.046-.081.219-.085.315-.126.18-.043.292-.095.038-.111-.256-.069-.55-.038-.775-.192.015-.092.251-.06.347-.1.121-.021.256-.038.353-.119-.396-.164-.913-.048-1.224-.396-.072-.133.222-.026.306-.048.212 0 .441.067.643-.018-.577-.252-1.194-.489-1.634-.956-.049-.075-.195-.28-.077-.305.342.045.59.418.956.36.049-.065-.213-.172-.278-.266-.534-.457-1.052-.952-1.426-1.551-.026-.2.289-.23.372-.075.408.392.777.849 1.286 1.117.18.087-.104-.103-.141-.172-.47-.544-.917-1.118-1.246-1.759-.059-.115-.156-.324.02-.386.176-.088.35.032.439.182.345.434.6.951 1.03 1.312-.367-.709-.758-1.456-.768-2.272.009-.158.019-.398.234-.391.181-.027.152.203.211.313.178.6.256 1.249.613 1.778-.079-.445-.195-.903-.118-1.355.018-.148.185-.193.295-.104.088.216.107.482.188.713.459 1.564 1.489 2.94 2.831 3.863 1.105.756 2.417 1.207 3.756 1.286C26.125 28.502 26.247 28.505 26.368 28.513M24.668 30.443A.072.072 0 1 0 24.668 30.587.072.072 0 1 0 24.668 30.443zM6 10.564c0 0-.32-.254-.429-.127-.175.205.538 1.226.538 1.585 0 .59-.417.751-.932.835-.346.057-.909-.024-.909-.024.106-.134.175-.174.354-.185C4.423 12.552 4.22 12.34 4.22 12.011c0-.508.221-.717.221-1.289C4.442 10.404 4.166 10 4.166 10c.488.046.729.472.592.813.078.011.148-.006.209-.06.036.094-.021.204-.096.298.061.031.105.012.202-.007-.009.097-.071.201-.222.298.438-.107.708.181.708.483 0 .228-.169.391-.335.391-.053 0-.132-.021-.176-.052-.031.063-.015.147.017.21-.121-.03-.198-.098-.143-.24-.093-.008-.167-.038-.218-.094.051-.062.129-.097.218-.094-.068-.132.008-.206.118-.266 0 0-.07.266.109.266.08 0 .154-.025.154-.137 0-.097-.09-.232-.299-.224-.209.009-.378.136-.378.45 0 .29.248.434.574.443.294.009.517-.142.517-.429 0-.382-.584-1.251-.584-1.591 0-.255.243-.398.481-.398.308 0 .569.288.569.288L6 10.564 6 10.564z"/><path fill="#ffee58" d="M6.067,17.461c0,0.638-0.607,0.965-1.083,0.965C4.342,18.426,4,18.064,4,17.589c0-0.269,0.052-0.438,0.184-0.695c0,0,1.059-2.079,1.472-2.883c0.051-0.1,0.068-0.214,0.068-0.382c0-0.259-0.266-0.47-0.544-0.476c-0.254-0.006-0.531,0.223-0.531,0.485c0,0.318,0.175,0.459,0.354,0.459c0.221,0,0.308-0.086,0.308-0.232c0-0.102-0.052-0.146-0.127-0.146c-0.189,0-0.136,0.24-0.136,0.24c-0.094-0.019-0.171-0.11-0.127-0.223c-0.069-0.014-0.133-0.048-0.184-0.103c0.051-0.046,0.109-0.082,0.184-0.094c-0.044-0.138,0.015-0.205,0.143-0.234c-0.026,0.053-0.027,0.102-0.018,0.148c0.201-0.054,0.51,0.032,0.51,0.36c0,0.326-0.24,0.601-0.689,0.532c0.107,0.048,0.161,0.147,0.172,0.257c-0.082-0.03-0.172-0.034-0.172-0.034c0.053,0.087,0.126,0.163,0.122,0.335c-0.083-0.036-0.161-0.102-0.268-0.06c0.168,0.311-0.038,0.74-0.562,0.841c0.192-0.212,0.286-0.441,0.286-0.669c0-0.739-0.218-0.863-0.218-1.377c0-0.215,0.117-0.447,0.349-0.605v0.009c-0.153-0.039-0.252-0.11-0.308-0.207c0.35-0.094,0.86-0.092,1.133,0.01C5.716,12.878,5.935,13.106,6,13.221c0.065,0.115,0.19,0.533,0,0.91c-0.208,0.412-1.19,2.377-1.497,2.995c-0.065,0.131-0.104,0.27-0.104,0.421c0,0.378,0.367,0.511,0.576,0.511c0.249,0,0.503-0.179,0.503-0.403c0-0.142-0.082-0.227-0.2-0.227c-0.282,0-0.265,0.226-0.209,0.369c-0.175-0.074-0.277-0.207-0.249-0.348c-0.099-0.013-0.194-0.057-0.281-0.15c0.069-0.082,0.152-0.144,0.281-0.146c-0.056-0.217,0.098-0.309,0.249-0.36c-0.048,0.16-0.079,0.343,0.209,0.343c0.21,0,0.375,0.034,0.472,0.163c0.006-0.172,0.023-0.85,0.023-0.85c0.012-0.255-0.361-0.247-0.599-0.172c0.09-0.293,0.273-0.452,0.698-0.412C5.77,15.824,5.66,15.732,5.66,15.555c0-0.239,0.205-0.504,0.34-0.582L6.067,17.461L6.067,17.461z"/><path fill="#ffee58" d="M6.067 19.373c0-.638-.607-.965-1.083-.965C4.342 18.408 4 18.77 4 19.245c0 .269.052.438.184.695 0 0 1.059 2.079 1.472 2.883.051.1.068.214.068.382 0 .259-.266.47-.544.476-.254.006-.531-.223-.531-.485 0-.318.175-.459.354-.459.221 0 .308.086.308.232 0 .102-.052.146-.127.146-.189 0-.136-.24-.136-.24-.094.019-.171.11-.127.223-.069.014-.133.048-.184.103.051.046.109.082.184.094-.044.138.015.205.143.234-.026-.053-.027-.102-.018-.148.201.054.51-.032.51-.36 0-.326-.24-.601-.689-.532.107-.048.161-.147.172-.257-.082.03-.172.034-.172.034.053-.087.126-.163.122-.335-.083.036-.161.102-.268.06.168-.311-.038-.74-.562-.841.192.212.286.441.286.669 0 .739-.218.863-.218 1.377 0 .215.117.447.349.605v-.009C4.423 23.832 4.324 23.903 4.268 24c.35.094.86.092 1.133-.01C5.716 23.956 5.935 23.728 6 23.613c.065-.115.19-.533 0-.91-.208-.412-1.19-2.377-1.497-2.995-.065-.131-.104-.27-.104-.421 0-.378.367-.511.576-.511.249 0 .503.179.503.403 0 .142-.082.227-.2.227-.282 0-.265-.226-.209-.369-.175.074-.277.207-.249.348-.099.013-.194.057-.281.15.069.082.152.144.281.146-.056.217.098.309.249.36C5.022 19.883 4.991 19.7 5.279 19.7c.21 0 .375-.034.472-.163.006.172.023.85.023.85.012.255-.361.247-.599.172.09.293.273.452.698.412C5.77 21.01 5.66 21.102 5.66 21.279c0 .239.205.504.34.582L6.067 19.373 6.067 19.373zM6 10.564c0 0 .32-.254.429-.127.175.205-.538 1.226-.538 1.585 0 .59.417.751.932.835.346.057.909-.024.909-.024C7.626 12.7 7.557 12.66 7.379 12.649c.199-.097.401-.309.401-.638 0-.508-.221-.717-.221-1.289C7.558 10.404 7.834 10 7.834 10c-.488.046-.729.472-.592.813-.078.011-.148-.006-.209-.06-.036.094.021.204.096.298-.061.031-.105.012-.202-.007.009.097.071.201.222.298-.438-.107-.708.181-.708.483 0 .228.169.391.335.391.053 0 .132-.021.176-.052.031.063.015.147-.017.21.121-.03.198-.098.143-.24.093-.008.167-.038.218-.094-.051-.062-.129-.097-.218-.094.068-.132-.008-.206-.118-.266 0 0 .07.266-.109.266-.08 0-.154-.025-.154-.137 0-.097.09-.232.299-.224.209.009.378.136.378.45 0 .29-.248.434-.574.443-.294.009-.517-.142-.517-.429 0-.382.584-1.251.584-1.591 0-.255-.243-.398-.481-.398-.308 0-.569.288-.569.288L6 10.564 6 10.564z"/><path fill="#ffee58" d="M5.933,17.461c0,0.638,0.607,0.965,1.083,0.965C7.658,18.426,8,18.064,8,17.589c0-0.269-0.052-0.438-0.184-0.695c0,0-1.059-2.079-1.472-2.883c-0.051-0.1-0.068-0.214-0.068-0.382c0-0.259,0.266-0.47,0.544-0.476c0.254-0.006,0.531,0.223,0.531,0.485c0,0.318-0.175,0.459-0.354,0.459c-0.221,0-0.308-0.086-0.308-0.232c0-0.102,0.052-0.146,0.127-0.146c0.189,0,0.136,0.24,0.136,0.24c0.094-0.019,0.171-0.11,0.127-0.223c0.069-0.014,0.133-0.048,0.184-0.103c-0.051-0.046-0.109-0.082-0.184-0.094c0.044-0.138-0.015-0.205-0.143-0.234c0.026,0.053,0.027,0.102,0.018,0.148c-0.201-0.054-0.51,0.032-0.51,0.36c0,0.326,0.24,0.601,0.689,0.532c-0.107,0.048-0.161,0.147-0.172,0.257c0.082-0.03,0.172-0.034,0.172-0.034c-0.053,0.087-0.126,0.163-0.122,0.335c0.083-0.036,0.161-0.102,0.268-0.06c-0.168,0.311,0.038,0.74,0.562,0.841c-0.192-0.212-0.286-0.441-0.286-0.669c0-0.739,0.218-0.863,0.218-1.377c0-0.215-0.117-0.447-0.349-0.605v0.009c0.153-0.039,0.252-0.11,0.308-0.207c-0.35-0.094-0.86-0.092-1.133,0.01C6.284,12.878,6.065,13.106,6,13.221c-0.065,0.115-0.19,0.533,0,0.91c0.208,0.412,1.19,2.377,1.497,2.995c0.065,0.131,0.104,0.27,0.104,0.421c0,0.378-0.367,0.511-0.576,0.511c-0.249,0-0.503-0.179-0.503-0.403c0-0.142,0.082-0.227,0.2-0.227c0.282,0,0.265,0.226,0.209,0.369c0.175-0.074,0.277-0.207,0.249-0.348c0.099-0.013,0.194-0.057,0.281-0.15c-0.069-0.082-0.152-0.144-0.281-0.146c0.056-0.217-0.098-0.309-0.249-0.36c0.048,0.16,0.079,0.343-0.209,0.343c-0.21,0-0.375,0.034-0.472,0.163c-0.006-0.172-0.023-0.85-0.023-0.85c-0.012-0.255,0.361-0.247,0.599-0.172c-0.09-0.293-0.273-0.452-0.698-0.412c0.103-0.041,0.213-0.132,0.213-0.309c0-0.239-0.205-0.504-0.34-0.582L5.933,17.461L5.933,17.461z"/><path fill="#ffee58" d="M5.933 19.373c0-.638.607-.965 1.083-.965C7.658 18.408 8 18.77 8 19.245c0 .269-.052.438-.184.695 0 0-1.059 2.079-1.472 2.883-.051.1-.068.214-.068.382 0 .259.266.47.544.476.254.006.531-.223.531-.485 0-.318-.175-.459-.354-.459-.221 0-.308.086-.308.232 0 .102.052.146.127.146.189 0 .136-.24.136-.24.094.019.171.11.127.223.069.014.133.048.184.103-.051.046-.109.082-.184.094.044.138-.015.205-.143.234.026-.053.027-.102.018-.148-.201.054-.51-.032-.51-.36 0-.326.24-.601.689-.532-.107-.048-.161-.147-.172-.257.082.03.172.034.172.034-.053-.087-.126-.163-.122-.335.083.036.161.102.268.06-.168-.311.038-.74.562-.841-.192.212-.286.441-.286.669 0 .739.218.863.218 1.377 0 .215-.117.447-.349.605v-.009c.153.039.252.11.308.207-.35.094-.86.092-1.133-.01C6.284 23.956 6.065 23.728 6 23.613c-.065-.115-.19-.533 0-.91.208-.412 1.19-2.377 1.497-2.995.065-.131.104-.27.104-.421 0-.378-.367-.511-.576-.511-.249 0-.503.179-.503.403 0 .142.082.227.2.227.282 0 .265-.226.209-.369.175.074.277.207.249.348.099.013.194.057.281.15-.069.082-.152.144-.281.146.056.217-.098.309-.249.36.048-.16.079-.343-.209-.343-.21 0-.375-.034-.472-.163-.006.172-.023.85-.023.85-.012.255.361.247.599.172-.09.293-.273.452-.698.412C6.23 21.01 6.34 21.102 6.34 21.279c0 .239-.205.504-.34.582L5.933 19.373 5.933 19.373zM6 37.436c0 0-.32.254-.429.127-.175-.205.538-1.226.538-1.585 0-.59-.417-.751-.932-.835-.346-.057-.909.024-.909.024.106.134.175.174.354.185C4.423 35.448 4.22 35.66 4.22 35.989c0 .508.221.717.221 1.289C4.442 37.596 4.166 38 4.166 38c.488-.046.729-.472.592-.813.078-.011.148.006.209.06.036-.094-.021-.204-.096-.298.061-.031.105-.012.202.007-.009-.097-.071-.201-.222-.298.438.107.708-.181.708-.483 0-.228-.169-.391-.335-.391-.053 0-.132.021-.176.052-.031-.063-.015-.147.017-.21-.121.03-.198.098-.143.24-.093.008-.167.038-.218.094.051.062.129.097.218.094-.068.132.008.206.118.266 0 0-.07-.266.109-.266.08 0 .154.025.154.137 0 .097-.09.232-.299.224-.209-.009-.378-.136-.378-.45 0-.29.248-.434.574-.443.294-.009.517.142.517.429 0 .382-.584 1.251-.584 1.591 0 .255.243.398.481.398.308 0 .569-.288.569-.288L6 37.436 6 37.436z"/><path fill="#ffee58" d="M6.067,30.539c0-0.638-0.607-0.965-1.083-0.965C4.342,29.574,4,29.936,4,30.411c0,0.269,0.052,0.438,0.184,0.695c0,0,1.059,2.079,1.472,2.883c0.051,0.1,0.068,0.214,0.068,0.382c0,0.259-0.266,0.47-0.544,0.476c-0.254,0.006-0.531-0.223-0.531-0.485c0-0.318,0.175-0.459,0.354-0.459c0.221,0,0.308,0.086,0.308,0.232c0,0.102-0.052,0.146-0.127,0.146c-0.189,0-0.136-0.24-0.136-0.24c-0.094,0.019-0.171,0.11-0.127,0.223c-0.069,0.014-0.133,0.048-0.184,0.103c0.051,0.046,0.109,0.082,0.184,0.094c-0.044,0.138,0.015,0.205,0.143,0.234c-0.026-0.053-0.027-0.102-0.018-0.148c0.201,0.054,0.51-0.032,0.51-0.36c0-0.326-0.24-0.601-0.689-0.532c0.107-0.048,0.161-0.147,0.172-0.257c-0.082,0.03-0.172,0.034-0.172,0.034c0.053-0.087,0.126-0.163,0.122-0.335c-0.083,0.036-0.161,0.102-0.268,0.06c0.168-0.311-0.038-0.74-0.562-0.841c0.192,0.212,0.286,0.441,0.286,0.669c0,0.739-0.218,0.863-0.218,1.377c0,0.215,0.117,0.447,0.349,0.605v-0.009c-0.153,0.039-0.252,0.11-0.308,0.207c0.35,0.094,0.86,0.092,1.133-0.009C5.716,35.122,5.935,34.894,6,34.779c0.065-0.115,0.19-0.533,0-0.91c-0.208-0.412-1.19-2.377-1.497-2.995c-0.065-0.131-0.104-0.27-0.104-0.421c0-0.378,0.367-0.511,0.576-0.511c0.249,0,0.503,0.179,0.503,0.403c0,0.142-0.082,0.227-0.2,0.227c-0.282,0-0.265-0.226-0.209-0.369c-0.175,0.074-0.277,0.207-0.249,0.348c-0.099,0.013-0.194,0.057-0.281,0.15c0.069,0.082,0.152,0.144,0.281,0.146c-0.056,0.217,0.098,0.309,0.249,0.36c-0.048-0.16-0.079-0.343,0.209-0.343c0.21,0,0.375-0.034,0.472-0.163c0.006,0.172,0.023,0.85,0.023,0.85c0.012,0.255-0.361,0.247-0.599,0.172c0.09,0.293,0.273,0.452,0.698,0.412C5.77,32.176,5.66,32.268,5.66,32.445c0,0.239,0.205,0.504,0.34,0.582L6.067,30.539L6.067,30.539z"/><path fill="#ffee58" d="M6.067 28.627c0 .638-.607.965-1.083.965C4.342 29.592 4 29.23 4 28.755c0-.269.052-.438.184-.695 0 0 1.059-2.079 1.472-2.883.051-.1.068-.214.068-.382 0-.259-.266-.47-.544-.476-.254-.006-.531.223-.531.485 0 .318.175.459.354.459.221 0 .308-.086.308-.232 0-.102-.052-.146-.127-.146-.189 0-.136.24-.136.24-.094-.019-.171-.11-.127-.223-.069-.014-.133-.048-.184-.103.051-.046.109-.082.184-.094-.044-.138.015-.205.143-.234-.026.053-.027.102-.018.148.201-.054.51.032.51.36 0 .326-.24.601-.689.532.107.048.161.147.172.257-.082-.03-.172-.034-.172-.034.053.087.126.163.122.335-.083-.036-.161-.102-.268-.06.168.311-.038.74-.562.841.192-.212.286-.441.286-.669 0-.739-.218-.863-.218-1.377 0-.215.117-.447.349-.605v.009C4.423 24.168 4.324 24.097 4.268 24c.35-.094.86-.092 1.133.01C5.716 24.044 5.935 24.272 6 24.387c.065.115.19.533 0 .91-.208.412-1.19 2.377-1.497 2.995-.065.131-.104.27-.104.421 0 .378.367.511.576.511.249 0 .503-.179.503-.403 0-.142-.082-.227-.2-.227-.282 0-.265.226-.209.369-.175-.074-.277-.207-.249-.348-.099-.013-.194-.057-.281-.15.069-.082.152-.144.281-.146-.056-.217.098-.309.249-.36C5.022 28.117 4.991 28.3 5.279 28.3c.21 0 .375.034.472.163.006-.172.023-.85.023-.85.012-.255-.361-.247-.599-.172.09-.293.273-.452.698-.412C5.77 26.99 5.66 26.898 5.66 26.721c0-.239.205-.504.34-.582L6.067 28.627 6.067 28.627zM6 37.436c0 0 .32.254.429.127.175-.205-.538-1.226-.538-1.585 0-.59.417-.751.932-.835.346-.057.909.024.909.024C7.626 35.3 7.557 35.34 7.379 35.351c.199.097.401.309.401.638 0 .508-.221.717-.221 1.289C7.558 37.596 7.834 38 7.834 38c-.488-.046-.729-.472-.592-.813-.078-.011-.148.006-.209.06-.036-.094.021-.204.096-.298-.061-.031-.105-.012-.202.007.009-.097.071-.201.222-.298-.438.107-.708-.181-.708-.483 0-.228.169-.391.335-.391.053 0 .132.021.176.052.031-.063.015-.147-.017-.21.121.03.198.098.143.24.093.008.167.038.218.094-.051.062-.129.097-.218.094.068.132-.008.206-.118.266 0 0 .07-.266-.109-.266-.08 0-.154.025-.154.137 0 .097.09.232.299.224.209-.009.378-.136.378-.45 0-.29-.248-.434-.574-.443-.294-.009-.517.142-.517.429 0 .382.584 1.251.584 1.591 0 .255-.243.398-.481.398-.308 0-.569-.288-.569-.288L6 37.436 6 37.436z"/><path fill="#ffee58" d="M5.933,30.539c0-0.638,0.607-0.965,1.083-0.965C7.658,29.574,8,29.936,8,30.411c0,0.269-0.052,0.438-0.184,0.695c0,0-1.059,2.079-1.472,2.883c-0.051,0.1-0.068,0.214-0.068,0.382c0,0.259,0.266,0.47,0.544,0.476c0.254,0.006,0.531-0.223,0.531-0.485c0-0.318-0.175-0.459-0.354-0.459c-0.221,0-0.308,0.086-0.308,0.232c0,0.102,0.052,0.146,0.127,0.146c0.189,0,0.136-0.24,0.136-0.24c0.094,0.019,0.171,0.11,0.127,0.223c0.069,0.014,0.133,0.048,0.184,0.103c-0.051,0.046-0.109,0.082-0.184,0.094c0.044,0.138-0.015,0.205-0.143,0.234c0.026-0.053,0.027-0.102,0.018-0.148c-0.201,0.054-0.51-0.032-0.51-0.36c0-0.326,0.24-0.601,0.689-0.532c-0.107-0.048-0.161-0.147-0.172-0.257c0.082,0.03,0.172,0.034,0.172,0.034c-0.053-0.087-0.126-0.163-0.122-0.335c0.083,0.036,0.161,0.102,0.268,0.06c-0.168-0.311,0.038-0.74,0.562-0.841c-0.192,0.212-0.286,0.441-0.286,0.669c0,0.739,0.218,0.863,0.218,1.377c0,0.215-0.117,0.447-0.349,0.605v-0.009c0.153,0.039,0.252,0.11,0.308,0.207c-0.35,0.094-0.86,0.092-1.133-0.009C6.284,35.122,6.065,34.894,6,34.779c-0.065-0.115-0.19-0.533,0-0.91c0.208-0.412,1.19-2.377,1.497-2.995c0.065-0.131,0.104-0.27,0.104-0.421c0-0.378-0.367-0.511-0.576-0.511c-0.249,0-0.503,0.179-0.503,0.403c0,0.142,0.082,0.227,0.2,0.227c0.282,0,0.265-0.226,0.209-0.369c0.175,0.074,0.277,0.207,0.249,0.348c0.099,0.013,0.194,0.057,0.281,0.15c-0.069,0.082-0.152,0.144-0.281,0.146c0.056,0.217-0.098,0.309-0.249,0.36c0.048-0.16,0.079-0.343-0.209-0.343c-0.21,0-0.375-0.034-0.472-0.163c-0.006,0.172-0.023,0.85-0.023,0.85c-0.012,0.255,0.361,0.247,0.599,0.172c-0.09,0.293-0.273,0.452-0.698,0.412c0.103,0.041,0.213,0.132,0.213,0.309c0,0.239-0.205,0.504-0.34,0.582L5.933,30.539L5.933,30.539z"/><path fill="#ffee58" d="M5.933,28.627c0,0.638,0.607,0.965,1.083,0.965C7.658,29.592,8,29.23,8,28.755c0-0.269-0.052-0.438-0.184-0.695c0,0-1.059-2.079-1.472-2.883c-0.051-0.1-0.068-0.214-0.068-0.382c0-0.259,0.266-0.47,0.544-0.476c0.254-0.006,0.531,0.223,0.531,0.485c0,0.318-0.175,0.459-0.354,0.459c-0.221,0-0.308-0.086-0.308-0.232c0-0.102,0.052-0.146,0.127-0.146c0.189,0,0.136,0.24,0.136,0.24c0.094-0.019,0.171-0.11,0.127-0.223c0.069-0.014,0.133-0.048,0.184-0.103c-0.051-0.046-0.109-0.082-0.184-0.094c0.044-0.138-0.015-0.205-0.143-0.234c0.026,0.053,0.027,0.102,0.018,0.148c-0.201-0.054-0.51,0.032-0.51,0.36c0,0.326,0.24,0.601,0.689,0.532c-0.107,0.048-0.161,0.147-0.172,0.257c0.082-0.03,0.172-0.034,0.172-0.034c-0.053,0.087-0.126,0.163-0.122,0.335c0.083-0.036,0.161-0.102,0.268-0.06c-0.168,0.311,0.038,0.74,0.562,0.841c-0.192-0.212-0.286-0.441-0.286-0.669c0-0.739,0.218-0.863,0.218-1.377c0-0.215-0.117-0.447-0.349-0.605v0.009c0.153-0.039,0.252-0.11,0.308-0.207c-0.35-0.094-0.86-0.092-1.133,0.01C6.284,24.044,6.065,24.272,6,24.387c-0.065,0.115-0.19,0.533,0,0.91c0.208,0.412,1.19,2.377,1.497,2.995c0.065,0.131,0.104,0.27,0.104,0.421c0,0.378-0.367,0.511-0.576,0.511c-0.249,0-0.503-0.179-0.503-0.403c0-0.142,0.082-0.227,0.2-0.227c0.282,0,0.265,0.226,0.209,0.369c0.175-0.074,0.277-0.207,0.249-0.348c0.099-0.013,0.194-0.057,0.281-0.15c-0.069-0.082-0.152-0.144-0.281-0.146c0.056-0.217-0.098-0.309-0.249-0.36c0.048,0.16,0.079,0.343-0.209,0.343c-0.21,0-0.375,0.034-0.472,0.163c-0.006-0.172-0.023-0.85-0.023-0.85c-0.012-0.255,0.361-0.247,0.599-0.172c-0.09-0.293-0.273-0.452-0.698-0.412C6.23,26.99,6.34,26.898,6.34,26.721c0-0.239-0.205-0.504-0.34-0.582L5.933,28.627L5.933,28.627z"/></svg>