<svg xmlns="http://www.w3.org/2000/svg" viewBox="0 0 48 48"><path fill="#388e3c" d="M2,9h44v30H2V9z"/><path fill="#e53935" d="M7,9h8v30H7V9z"/><rect width="6.115" height="2.394" x="7.992" y="15.936" fill="#43a047"/><rect width="4.754" height="3.016" x="8.685" y="15.649" fill="#ffc107"/><rect width="2.977" height="3.686" x="9.562" y="15.314" fill="#43a047"/><rect width="1.408" height="4.197" x="10.323" y="15.074" fill="#ffc107"/><polygon fill="#eceff1" points="14.503,11.064 13.887,10.626 13.887,10.202 13.333,9.803 12.729,9.803 12.01,9.293 10.133,9.277 9.388,9.803 8.826,9.803 8.256,10.154 8.256,10.602 7.579,11.08 7.564,11.91 8.256,12.391 8.256,12.707 8.764,13.106 9.284,13.106 10.041,13.633 11.949,13.633 12.736,13.106 13.395,13.106 13.887,12.771 13.887,12.337 14.503,11.926"/><polygon fill="#ffc107" points="11.123,11.34 11.123,13.633 11.949,13.633 12.736,13.106 13.395,13.106 13.887,12.771 13.887,12.337 14.503,11.926 14.503,11.34"/><polygon fill="#ffc107" points="11.092,11.34 11.092,9.285 10.133,9.277 9.388,9.803 8.826,9.803 8.256,10.154 8.256,10.602 7.579,11.08 7.575,11.34"/><path fill="#43a047" d="M12.015,13.714h-1.969l-0.757-0.526H8.765l-0.573-0.45v-0.312l-0.693-0.482l0.018-0.934 l0.676-0.478V10.08l0.641-0.396h0.558l0.747-0.527l0.032,0.001l1.908,0.017l0.026,0.018l0.692,0.492h0.605l0.622,0.448v0.423 l0.615,0.438v0.968l-0.615,0.411v0.434l-0.562,0.382h-0.659L12.015,13.714z M10.108,13.515h1.846l0.788-0.526h0.658l0.423-0.288 v-0.436l0.615-0.411v-0.757l-0.615-0.438v-0.425l-0.486-0.351h-0.604l-0.026-0.018l-0.692-0.492L10.2,9.358L9.455,9.884H8.89 l-0.498,0.308v0.443l-0.678,0.479l-0.014,0.725l0.691,0.482v0.318l0.442,0.349h0.517L10.108,13.515z"/><polygon fill="#43a047" points="12.693,11.7 13.139,11.385 12.693,11.061 12.693,10.555 11.995,10.555 11.093,9.901 10.231,10.555 9.477,10.555 9.477,11.127 9.139,11.385 9.477,11.643 9.477,12.262 10.289,12.262 11.062,12.853 11.897,12.262 12.693,12.262"/><polygon fill="#e53935" points="11.062,11.412 13.04,11.412 12.641,11.123 12.641,10.617 11.943,10.617 11.062,9.978 11.062,11.388 9.164,11.388 9.087,11.447 9.426,11.705 9.426,12.324 10.237,12.324 11.01,12.915 11.062,12.879"/><polygon fill="#eceff1" points="10.284,11.431 11.11,10.84 11.964,11.402 11.138,11.963"/><path fill="#e53935" d="M11.141,12.082l-1.037-0.646l1.003-0.717l1.037,0.68L11.141,12.082z M10.464,11.425l0.671,0.419 l0.648-0.44l-0.671-0.441L10.464,11.425z"/><path fill="#ffc107" d="M11.879,19.382h-1.662v-0.256H9.433v-0.335H8.572v-0.319H7.879v-2.593h0.692V15.56h0.861v-0.335 h0.785V14.97h1.662v0.255h0.785v0.335h0.862v0.319h0.692v2.593h-0.692v0.319h-0.862v0.335h-0.785V19.382z M10.418,19.183h1.261 v-0.256h0.785v-0.335h0.862v-0.319h0.692v-2.194h-0.692v-0.319h-0.862v-0.335h-0.785v-0.255h-1.261v0.255H9.633v0.335H8.772v0.319 H8.08v2.194h0.692v0.319h0.861v0.335h0.785V19.183z"/><polygon fill="#e53935" points="8.626,16.904 8.61,17.431 9.703,17.431 10.395,17.894 11.687,17.894 12.379,17.431 13.472,17.399 13.456,16.856 12.379,16.888 11.718,16.426 10.395,16.426 9.733,16.904"/><path fill="#43a047" d="M11.717,17.993h-1.353L9.672,17.53H8.507l0.021-0.726h1.173l0.662-0.479h1.387l0.66,0.462 l1.144-0.034l0.021,0.742l-1.163,0.034L11.717,17.993z M10.425,17.794h1.231l0.691-0.463h0.029l0.993-0.028l-0.01-0.344 l-1.01,0.03l-0.663-0.464h-1.259l-0.662,0.479H8.723l-0.009,0.327h1.02L10.425,17.794z"/><path fill="#ffc107" d="M13.095,24.68H9.002v-0.432H8.387v-2.8h0.615v-0.431h4.092v0.431h0.616v2.8h-0.616V24.68z M9.203,24.48h3.692v-0.432h0.616v-2.401h-0.616v-0.431H9.203v0.431H8.587v2.401h0.615V24.48z"/><path fill="#eceff1" d="M11.027,23.511l-0.841-0.654l0.856-0.671l0.803,0.655L11.027,23.511z M10.511,22.856l0.513,0.398 l0.505-0.414l-0.489-0.399L10.511,22.856z"/><path fill="#43a047" d="M9.99,24.266l-0.725-0.612l-0.033-1.592l0.724-0.629h0.037l2.225-0.033l0.6,0.552l-0.016,1.668 l-0.66,0.597L9.99,24.266z M9.463,23.56l0.598,0.505l2.002-0.046l0.54-0.489l0.014-1.49l-0.476-0.438l-2.108,0.031l-0.598,0.52 L9.463,23.56z"/><polygon fill="#43a047" points="11.041,26.399 10.487,26.814 8.687,26.814 8.626,27.356 8.133,27.356 8.133,27.899 7.579,27.899 7.564,29.096 8.164,29.096 8.164,29.686 8.703,29.686 8.703,30.245 10.426,30.245 11.041,30.676 11.656,30.245 13.41,30.245 13.456,29.686 13.949,29.686 13.979,29.176 14.487,29.176 14.472,27.931 13.979,27.931 13.949,27.452 13.456,27.452 13.487,26.83 11.656,26.83"/><polygon fill="#e53935" points="11.041,27.021 10.226,27.739 11.056,28.441 11.856,27.707"/><polygon fill="#ffc107" points="9.672,27.851 8.856,28.569 9.687,29.271 10.487,28.537"/><polygon fill="#ffc107" points="12.472,27.851 11.656,28.569 12.487,29.271 13.287,28.537"/><polygon fill="#eceff1" points="10.226,31.952 8.164,33.021 8.164,34.745 10.026,35.91 11.949,35.91 13.918,34.872 13.918,33.069 11.933,31.968"/><polygon fill="#e53935" points="11.041,28.601 10.226,29.319 11.056,30.021 11.856,29.287"/><polygon fill="#ffc107" points="8.195,33.883 11.072,33.899 11.072,31.92 10.318,31.952 8.256,33.021"/><polygon fill="#ffc107" points="13.903,33.995 11.195,33.963 11.087,35.926 11.872,35.941 13.918,34.793"/><path fill="#43a047" d="M11.974,36.009H9.997l-0.024-0.015l-1.908-1.193v-1.84l2.138-1.109l0.025,0.001l1.755,0.027 l2.037,1.131v1.922L11.974,36.009z M10.054,35.81h1.87l1.894-0.998v-1.684l-1.911-1.061l-1.657-0.015l-1.985,1.029v1.607 L10.054,35.81z"/><polygon fill="#e53935" points="11.041,32.718 10.195,33.261 9.856,33.293 9.826,34.537 10.226,34.585 11.041,35.144 11.887,34.617 12.241,34.601 12.226,33.261 11.933,33.261"/><path fill="#eceff1" d="M11.039,35.263l-0.849-0.581l-0.466-0.056l0.035-1.424l0.402-0.039L11.04,32.6l0.921,0.562h0.363 l0.018,1.535l-0.424,0.02L11.039,35.263z M9.928,34.448l0.354,0.055l0.761,0.521l0.813-0.506l0.284-0.014l-0.013-1.145h-0.222 l-0.863-0.524l-0.838,0.524l-0.25,0.023L9.928,34.448z"/><path fill="#ffc107" d="M11.938,38.753c-0.007-0.005-0.655-0.432-1.306-0.398c0,0-0.001,0-0.001,0 c-0.994,0-1.753-0.288-2.265-0.857c-0.837-0.93-0.708-2.26-0.702-2.316l0.199,0.021c-0.001,0.013-0.125,1.3,0.652,2.162 c0.473,0.524,1.183,0.791,2.11,0.791c0.036-0.003,0.072-0.004,0.108-0.004c0.672,0,1.291,0.417,1.318,0.436L11.938,38.753z"/><path fill="#ffc107" d="M10.057,38.753l-0.113-0.166c0.029-0.02,0.705-0.482,1.433-0.432c0.92,0,1.63-0.267,2.103-0.791 c0.777-0.862,0.654-2.149,0.652-2.162l0.199-0.021c0.006,0.057,0.135,1.387-0.702,2.316c-0.513,0.569-1.273,0.857-2.26,0.857 C10.717,38.32,10.064,38.748,10.057,38.753z"/><path fill="#ffc107" d="M11.06,12.977l-0.805-0.615H9.377v-0.669l-0.403-0.308l0.403-0.308v-0.622h0.82l0.894-0.68 l0.936,0.68h0.766v0.555l0.517,0.376l-0.517,0.366v0.609h-0.864L11.06,12.977z M9.578,12.162h0.745l0.742,0.566l0.801-0.566h0.727 v-0.514l0.375-0.265l-0.375-0.272v-0.457h-0.63l-0.026-0.019l-0.842-0.61l-0.829,0.629H9.578v0.522l-0.273,0.208l0.273,0.208 V12.162z"/><path fill="#ffc107" d="M11.041,30.798l-0.647-0.453H8.603v-0.559H8.064v-0.591H7.463L7.481,27.8h0.552v-0.543h0.503 l0.062-0.543h1.856l0.585-0.438l0.649,0.454h1.904l-0.031,0.622h0.481l0.031,0.479h0.497l0.018,1.444h-0.515l-0.031,0.511h-0.495 l-0.046,0.559h-1.814L11.041,30.798z M8.803,30.146h1.655l0.583,0.408l0.583-0.408h1.694l0.046-0.559h0.49l0.031-0.511h0.501 l-0.013-1.046h-0.487l-0.031-0.479h-0.503l0.031-0.622h-1.758l-0.582-0.407l-0.522,0.391H8.776l-0.062,0.543H8.233v0.543H7.678 l-0.013,0.997h0.599v0.591h0.539V30.146z"/><rect width=".369" height=".287" x="12.908" y="33.362" fill="#e53935"/><rect width=".369" height=".287" x="11.938" y="32.596" fill="#e53935"/><rect width=".369" height=".287" x="12.908" y="34.343" fill="#e53935"/><g><rect width=".369" height=".287" x="8.892" y="33.362" fill="#e53935"/></g><g><rect width=".369" height=".287" x="8.892" y="34.343" fill="#e53935"/></g><g><rect width=".369" height=".287" x="11.915" y="35.037" fill="#e53935"/></g><g><rect width=".369" height=".287" x="9.908" y="32.596" fill="#e53935"/></g><g><rect width=".369" height=".287" x="9.885" y="35.037" fill="#e53935"/></g><g><polygon fill="#ffc107" points="7.851,25.356 7.649,25.16 8.012,24.805 7,23.666 7,23.961 7.741,24.796 7.367,25.16 7.856,25.634 8.247,25.228 8.753,25.734 8.294,26.193 7.881,25.765 7.348,26.252 7.722,26.688 7,27.452 7,27.737 7.986,26.694 7.621,26.269 7.873,26.039 8.291,26.472 9.031,25.734 8.245,24.947"/><polygon fill="#ffc107" points="7.851,31.005 7.649,30.809 8.012,30.454 7,29.315 7,29.61 7.741,30.445 7.367,30.809 7.856,31.282 8.247,30.877 8.753,31.383 8.294,31.842 7.881,31.414 7.348,31.901 7.722,32.337 7,33.101 7,33.386 7.986,32.343 7.621,31.918 7.873,31.688 8.291,32.121 9.031,31.383 8.245,30.596"/><polygon fill="#ffc107" points="8.291,9.621 8.914,9 8.636,9 8.294,9.342 7.964,9 7.787,9 7.348,9.401 7.722,9.837 7,10.601 7,10.886 7.986,9.843 7.621,9.418 7.873,9.188"/><polygon fill="#ffc107" points="7.851,13.931 7.649,13.734 8.012,13.38 7,12.241 7,12.536 7.741,13.37 7.367,13.734 7.856,14.208 8.247,13.803 8.753,14.309 8.294,14.768 7.881,14.34 7.348,14.826 7.722,15.263 7,16.026 7,16.312 7.986,15.269 7.621,14.844 7.873,14.613 8.291,15.047 9.031,14.309 8.245,13.521"/><polygon fill="#ffc107" points="7.851,19.707 7.649,19.511 8.012,19.156 7,18.017 7,18.312 7.741,19.147 7.367,19.511 7.856,19.985 8.247,19.579 8.753,20.085 8.294,20.544 7.881,20.116 7.348,20.603 7.722,21.039 7,21.803 7,22.088 7.986,21.045 7.621,20.62 7.873,20.39 8.291,20.823 9.031,20.085 8.245,19.298"/></g><g><polygon fill="#ffc107" points="15,27.598 15,27.312 14.41,26.688 14.783,26.252 14.251,25.765 13.838,26.193 13.378,25.734 13.884,25.228 14.276,25.634 14.765,25.16 14.39,24.796 15,24.109 15,23.814 14.119,24.805 14.483,25.16 14.28,25.356 13.887,24.947 13.101,25.734 13.841,26.472 14.259,26.039 14.51,26.269 14.146,26.694"/><polygon fill="#ffc107" points="15,21.949 15,21.663 14.41,21.039 14.783,20.603 14.251,20.116 13.838,20.544 13.378,20.085 13.884,19.579 14.276,19.985 14.765,19.511 14.39,19.147 15,18.46 15,18.165 14.119,19.156 14.483,19.511 14.28,19.707 13.887,19.298 13.101,20.085 13.841,20.823 14.259,20.39 14.51,20.62 14.146,21.045"/><polygon fill="#ffc107" points="14.259,9.188 14.51,9.418 14.146,9.843 15,10.747 15,10.461 14.41,9.837 14.783,9.401 14.344,9 14.168,9 13.838,9.342 13.495,9 13.218,9 13.841,9.621"/><polygon fill="#ffc107" points="13.887,13.521 13.101,14.309 13.841,15.047 14.259,14.613 14.51,14.844 14.146,15.269 15,16.172 15,15.887 14.41,15.263 14.783,14.826 14.251,14.34 13.838,14.768 13.378,14.309 13.884,13.803 14.276,14.208 14.765,13.734 14.39,13.37 15,12.684 15,12.389 14.119,13.38 14.483,13.734 14.28,13.931"/><polygon fill="#ffc107" points="15,33.247 15,32.961 14.41,32.337 14.783,31.901 14.251,31.414 13.838,31.842 13.378,31.383 13.884,30.877 14.276,31.282 14.765,30.809 14.39,30.445 15,29.758 15,29.463 14.119,30.454 14.483,30.809 14.28,31.005 13.887,30.596 13.101,31.383 13.841,32.121 14.259,31.688 14.51,31.918 14.146,32.343"/></g><g><path fill="#eceff1" d="M24.15,12.021c0.867,0.704,1.432,1.766,1.432,2.97c0,2.122-1.72,3.842-3.842,3.842 c-0.497,0-0.968-0.102-1.404-0.274c0.661,0.537,1.492,0.872,2.41,0.872c2.122,0,3.842-1.72,3.842-3.842 C26.588,13.964,25.576,12.583,24.15,12.021z"/><polygon fill="#eceff1" points="20.185,15.546 20.636,15.854 21.078,15.531 20.924,16.056 21.367,16.376 20.821,16.392 20.654,16.912 20.47,16.397 19.923,16.4 20.356,16.065"/><polygon fill="#eceff1" points="20.197,13.631 20.648,13.94 21.089,13.616 20.936,14.141 21.379,14.461 20.833,14.477 20.666,14.998 20.482,14.482 19.935,14.485 20.368,14.15"/><polygon fill="#eceff1" points="18.246,14.588 18.697,14.897 19.139,14.574 18.985,15.099 19.429,15.418 18.882,15.434 18.715,15.955 18.531,15.44 17.984,15.442 18.417,15.108"/><polygon fill="#eceff1" points="22.112,12.614 22.563,12.922 23.004,12.599 22.85,13.124 23.294,13.444 22.748,13.459 22.581,13.98 22.397,13.465 21.85,13.467 22.283,13.133"/><polygon fill="#eceff1" points="20.197,11.656 20.648,11.965 21.089,11.642 20.936,12.166 21.379,12.486 20.833,12.502 20.666,13.023 20.482,12.508 19.935,12.51 20.368,12.176"/></g></svg>