<svg xmlns="http://www.w3.org/2000/svg" viewBox="0 0 40 40"><path fill="#f78f8f" d="M0.5 6.5H39.5V33.5H0.5z"/><path fill="#c74343" d="M39,7v26H1V7H39 M40,6H0v28h40V6L40,6z"/><path fill="#fff" d="M11.999 9H38.999V11H11.999zM11.999 14H38.999V16H11.999zM.999 24H38.999V26H.999zM1.002 19H39.002V21H1.002zM1.002 29H39.002V31H1.002z"/><path fill="#8bb7f0" d="M0.5 6.5H19.5V20.5H0.5z"/><path fill="#4e7ab5" d="M19,7v13H1V7H19 M20,6H0v15h20V6L20,6z"/><path fill="#fff" d="M2.5 7L2.964 7.988 4 8.146 3.25 8.915 3.427 10 2.5 9.488 1.573 10 1.75 8.915 1 8.146 2.036 7.988zM5.5 10L5.964 10.988 7 11.146 6.25 11.915 6.427 13 5.5 12.488 4.573 13 4.75 11.915 4 11.146 5.036 10.988zM8.5 7L8.964 7.988 10 8.146 9.25 8.915 9.427 10 8.5 9.488 7.573 10 7.75 8.915 7 8.146 8.036 7.988zM11.5 10L11.964 10.988 13 11.146 12.25 11.915 12.427 13 11.5 12.488 10.573 13 10.75 11.915 10 11.146 11.036 10.988zM14.5 7L14.964 7.988 16 8.146 15.25 8.915 15.427 10 14.5 9.488 13.573 10 13.75 8.915 13 8.146 14.036 7.988zM2.5 13L2.964 13.988 4 14.146 3.25 14.915 3.427 16 2.5 15.488 1.573 16 1.75 14.915 1 14.146 2.036 13.988zM8.5 13L8.964 13.988 10 14.146 9.25 14.915 9.427 16 8.5 15.488 7.573 16 7.75 14.915 7 14.146 8.036 13.988zM14.464 13.012L14.927 14 15.964 14.158 15.214 14.927 15.391 16.012 14.464 15.5 13.536 16.012 13.714 14.927 12.964 14.158 14 14zM5.5 16L5.964 16.988 7 17.146 6.25 17.915 6.427 19 5.5 18.488 4.573 19 4.75 17.915 4 17.146 5.036 16.988zM11.5 16L11.964 16.988 13 17.146 12.25 17.915 12.427 19 11.5 18.488 10.573 19 10.75 17.915 10 17.146 11.036 16.988zM17.5 16L17.964 16.988 19 17.146 18.25 17.915 18.427 19 17.5 18.488 16.573 19 16.75 17.915 16 17.146 17.036 16.988zM17.5 10L17.964 10.988 19 11.146 18.25 11.915 18.427 13 17.5 12.488 16.573 13 16.75 11.915 16 11.146 17.036 10.988z"/></svg>